<svg xmlns="http://www.w3.org/2000/svg" width="18" height="18" viewBox="0 0 18 18"><path d="M16.69,10.43l-1.39-.81a6.46,6.46,0,0,0,0-1.24l1.39-.81a.37.37,0,0,0,.14-.47l-.06-.14a7.48,7.48,0,0,0-1.43-2.47l-.1-.12a.37.37,0,0,0-.48-.08l-1.39.81a6.17,6.17,0,0,0-1.08-.62V2.87a.37.37,0,0,0-.31-.37l-.15,0a7.56,7.56,0,0,0-2.86,0l-.15,0a.37.37,0,0,0-.31.37V4.48a6.38,6.38,0,0,0-1.08.62l-1.39-.81a.37.37,0,0,0-.48.08l-.1.12A7.48,7.48,0,0,0,4.23,6.96l-.06.14a.37.37,0,0,0,.14.47l1.39.81a6.46,6.46,0,0,0,0,1.24l-1.39.81a.37.37,0,0,0-.14.47l.06.14a7.48,7.48,0,0,0,1.43,2.47l.1.12a.37.37,0,0,0,.48.08l1.39-.81a6.17,6.17,0,0,0,1.08.62v1.61a.37.37,0,0,0,.31.37l.15,0a7.56,7.56,0,0,0,2.86,0l.15,0a.37.37,0,0,0,.31-.37V13.52a6.38,6.38,0,0,0,1.08-.62l1.39.81a.37.37,0,0,0,.48-.08l.1-.12a7.48,7.48,0,0,0,1.43-2.47l.06-.14A.37.37,0,0,0,16.69,10.43ZM9,11.5A2.5,2.5,0,1,1,11.5,9,2.5,2.5,0,0,1,9,11.5Z" fill="#50e6ff"/><path d="M9,11.5A2.5,2.5,0,1,1,11.5,9,2.5,2.5,0,0,1,9,11.5Z" fill="#32bedd"/></svg>